<?xml version="1.0" encoding="utf-8"?>
<!-- Generator: Adobe Illustrator 24.0.3, SVG Export Plug-In . SVG Version: 6.00 Build 0)  -->
<svg version="1.1" id="Layer_1" xmlns="http://www.w3.org/2000/svg" xmlns:xlink="http://www.w3.org/1999/xlink" x="0px" y="0px"
	 viewBox="0 0 1178.77 407.9" style="enable-background:new 0 0 1178.77 407.9;" xml:space="preserve">
<style type="text/css">
	.st0{fill:#1E1E1E;}
</style>
<g>
	<path class="st0" d="M291.17,95.55c-59.86,0-108.39,48.53-108.39,108.39s48.53,108.41,108.39,108.41
		c59.88,0,108.41-48.55,108.41-108.41S351.05,95.55,291.17,95.55z M264.77,248.78c-2.21-2.03-3.3-3.07-4.51-4.44
		c-0.98-1.13-2.87-3.32-4.53-6.6c-2.6-5.14-2.95-9.55-3.01-10.45c-0.1-1.35-0.08-2.72,0.06-4.06c0.76-7.19,4.55-13.7,8.64-19.67
		c8.67-12.76,18.99-24.34,27.7-37.1c1.02-1.47,1.99-3.52,0.86-4.9c-0.88-1.05-2.48-1.02-3.85-0.88
		c-11.59,1.15-21.28,0.55-26.81-11.1c-1.41-2.99-2.31-6.17-2.99-9.4c-0.12-0.53-0.68-8.54-0.55-8.46c0.29,0.18,0.41,0.41,0.59,0.7
		c0.33,0.53,0.64,1.04,0.98,1.54c0.94,1.47,1.84,3.09,3.11,4.28c2.89,2.7,4.32,3.3,6.58,4.12c3.61,1.31,7.15,1.33,10.98,1.45
		c4.3,0.12,8.6-0.35,12.84-0.92c5.08-0.68,10.06-2.15,15.18-2.5c2.5-0.18,5.29,0.04,7.05,1.84c1.17,1.19,1.6,2.75,1.62,4.44
		c0,1.74-0.45,3.58-1.02,5.22c-0.31,0.9-0.63,1.8-0.98,2.68c-3.79,9.83-9.79,18.68-15.71,27.43c-6.72,9.91-13.42,19.79-20.12,29.7
		c0,0-5.35,6.92-10,17.35c-0.37,0.86-1.07,2.5-1.64,4.69c-0.55,2.07-1.25,4.88-0.88,8.52c0.2,1.95,0.57,5.53,3.07,8.54
		c0.86,1.04,1.84,1.82,1.84,1.91C269.15,252.69,266.88,250.75,264.77,248.78z M331.67,184.95c-0.74,7.21-4.55,13.7-8.62,19.69
		c-8.69,12.76-19.01,24.34-27.72,37.08c-1.02,1.48-1.99,3.54-0.84,4.9c0.86,1.07,2.46,1.04,3.83,0.9
		c11.59-1.17,21.3-0.57,26.81,11.1c1.41,2.97,2.31,6.15,2.99,9.38c0.12,0.55,0.7,8.56,0.57,8.48c-0.31-0.18-0.43-0.43-0.61-0.72
		c-0.33-0.51-0.64-1.04-0.98-1.54c-0.94-1.47-1.82-3.09-3.11-4.26c-2.89-2.7-4.3-3.32-6.58-4.14c-3.61-1.31-7.15-1.33-10.98-1.45
		c-4.3-0.12-8.58,0.35-12.84,0.92c-5.08,0.68-10.06,2.15-15.16,2.5c-2.52,0.18-5.31-0.04-7.07-1.82c-1.17-1.21-1.6-2.77-1.62-4.45
		c0-1.74,0.45-3.58,1.02-5.22c0.29-0.88,0.63-1.78,0.96-2.64c3.81-9.85,9.81-18.72,15.73-27.47c6.72-9.89,13.42-19.79,20.14-29.7
		c0,0,5.33-6.92,9.98-17.35c0.39-0.86,1.07-2.48,1.64-4.69c0.55-2.05,1.25-4.88,0.88-8.5c-0.2-1.97-0.57-5.53-3.05-8.54
		c-0.86-1.04-1.86-1.84-1.86-1.91c0.12,0,2.38,1.91,4.49,3.89c2.21,2.05,3.3,3.07,4.51,4.43c0.98,1.13,2.87,3.32,4.53,6.6
		c2.62,5.14,2.95,9.55,3.01,10.45C331.82,182.23,331.8,183.6,331.67,184.95z"/>
	<g>
		<g>
			<path class="st0" d="M496.79,247.99c-3.18,0-5.63-0.88-7.34-2.64c-1.72-1.76-2.58-4.27-2.58-7.54v-65.19H464.2
				c-2.75,0-4.85-0.73-6.31-2.19c-1.46-1.46-2.19-3.52-2.19-6.18c0-2.58,0.73-4.57,2.19-5.99c1.46-1.42,3.56-2.13,6.31-2.13h65.45
				c2.66,0,4.72,0.71,6.18,2.13c1.46,1.42,2.19,3.41,2.19,5.99c0,2.66-0.73,4.72-2.19,6.18c-1.46,1.46-3.52,2.19-6.18,2.19h-22.8
				v65.19c0,3.27-0.84,5.78-2.51,7.54S500.14,247.99,496.79,247.99z"/>
			<path class="st0" d="M556.57,247.99c-3.18,0-5.63-0.88-7.34-2.64c-1.72-1.76-2.58-4.27-2.58-7.54v-72.53
				c0-3.35,0.86-5.88,2.58-7.6c1.72-1.72,4.17-2.58,7.34-2.58c3.26,0,5.75,0.86,7.47,2.58c1.72,1.72,2.58,4.25,2.58,7.6v72.53
				c0,3.27-0.84,5.78-2.51,7.54S559.92,247.99,556.57,247.99z"/>
			<path class="st0" d="M616.47,247.99c-3.18,0-5.63-0.88-7.34-2.64c-1.72-1.76-2.58-4.27-2.58-7.54v-65.19h-22.67
				c-2.75,0-4.85-0.73-6.31-2.19c-1.46-1.46-2.19-3.52-2.19-6.18c0-2.58,0.73-4.57,2.19-5.99c1.46-1.42,3.56-2.13,6.31-2.13h65.45
				c2.66,0,4.72,0.71,6.18,2.13c1.46,1.42,2.19,3.41,2.19,5.99c0,2.66-0.73,4.72-2.19,6.18c-1.46,1.46-3.52,2.19-6.18,2.19h-22.8
				v65.19c0,3.27-0.84,5.78-2.51,7.54S619.82,247.99,616.47,247.99z"/>
			<path class="st0" d="M708.46,248.25c-8.85,0-16.68-1.93-23.51-5.8c-6.83-3.87-12.09-9.32-15.78-16.36
				c-3.69-7.04-5.54-15.24-5.54-24.61c0-7.04,1.05-13.44,3.16-19.2c2.1-5.75,5.13-10.69,9.08-14.82c3.95-4.12,8.7-7.26,14.24-9.4
				c5.54-2.15,11.66-3.22,18.36-3.22c9.02,0,16.9,1.91,23.64,5.73c6.74,3.82,11.98,9.23,15.72,16.23c3.74,7,5.6,15.18,5.6,24.54
				c0,7.13-1.05,13.57-3.16,19.32c-2.11,5.76-5.15,10.72-9.15,14.88c-3.99,4.17-8.74,7.32-14.24,9.47
				C721.38,247.17,715.24,248.25,708.46,248.25z M708.46,231.37c5.07,0,9.38-1.2,12.95-3.61c3.56-2.4,6.31-5.84,8.25-10.31
				c1.93-4.46,2.9-9.79,2.9-15.97c0-9.45-2.13-16.77-6.38-21.97c-4.25-5.2-10.16-7.79-17.71-7.79c-4.98,0-9.28,1.16-12.88,3.48
				c-3.61,2.32-6.36,5.69-8.25,10.11c-1.89,4.42-2.83,9.81-2.83,16.17c0,9.36,2.13,16.68,6.38,21.97
				C695.12,228.73,700.98,231.37,708.46,231.37z"/>
			<path class="st0" d="M814.87,246.96c-3.18,0-5.65-0.9-7.41-2.71c-1.76-1.8-2.64-4.29-2.64-7.47v-70.73c0-3.35,0.86-5.88,2.58-7.6
				c1.72-1.72,4.17-2.58,7.34-2.58c3.26,0,5.75,0.86,7.47,2.58c1.72,1.72,2.58,4.25,2.58,7.6v64.03h34.53
				c2.75,0,4.85,0.73,6.31,2.19c1.46,1.46,2.19,3.52,2.19,6.18c0,2.75-0.73,4.85-2.19,6.31c-1.46,1.46-3.57,2.19-6.31,2.19H814.87z"
				/>
			<path class="st0" d="M888.56,247.99c-3.18,0-5.63-0.88-7.34-2.64c-1.72-1.76-2.58-4.27-2.58-7.54v-72.53
				c0-3.35,0.86-5.88,2.58-7.6c1.72-1.72,4.17-2.58,7.34-2.58c3.26,0,5.75,0.86,7.47,2.58c1.72,1.72,2.58,4.25,2.58,7.6v72.53
				c0,3.27-0.84,5.78-2.51,7.54S891.91,247.99,888.56,247.99z"/>
			<path class="st0" d="M954.65,247.99c-2.75,0-5-0.62-6.76-1.87c-1.76-1.24-3.24-3.11-4.44-5.6l-32.34-72.14
				c-1.12-2.66-1.46-4.98-1.03-6.96c0.43-1.97,1.48-3.52,3.16-4.64c1.67-1.12,3.63-1.67,5.86-1.67c3.09,0,5.39,0.64,6.89,1.93
				c1.5,1.29,2.77,3.18,3.8,5.67l28.47,65.96h-6.44l28.34-65.96c1.2-2.49,2.55-4.38,4.06-5.67c1.5-1.29,3.67-1.93,6.51-1.93
				c2.23,0,4.12,0.56,5.67,1.67c1.55,1.12,2.51,2.66,2.9,4.64c0.39,1.98-0.02,4.3-1.22,6.96l-32.46,72.14
				c-1.03,2.49-2.41,4.36-4.12,5.6C959.75,247.36,957.48,247.99,954.65,247.99z"/>
		</g>
	</g>
</g>
</svg>
