<svg id="Layer_1" data-name="Layer 1" xmlns="http://www.w3.org/2000/svg" viewBox="0 0 16 16"><defs><style>.cls-1{fill:#fff;}.cls-2{fill:#272727;}</style></defs><title>tl-favicon</title><circle class="cls-1" cx="8.26" cy="7.96" r="6.42"/><path class="cls-2" d="M8,0a8,8,0,1,0,8,8A8,8,0,0,0,8,0ZM6.05,11.31,5.72,11a2.38,2.38,0,0,1-.34-.49,2.27,2.27,0,0,1-.22-.77,1.5,1.5,0,0,1,0-.3A3.21,3.21,0,0,1,5.79,8c.64-.94,1.4-1.8,2-2.74.07-.11.14-.26.06-.36s-.18-.07-.28-.06c-.86.08-1.57,0-2-.82a3.35,3.35,0,0,1-.22-.7s0-.63,0-.62h0l.07.11a2.35,2.35,0,0,0,.23.32,1.18,1.18,0,0,0,.49.3A2.48,2.48,0,0,0,7,3.51a5,5,0,0,0,1-.07c.37,0,.74-.16,1.12-.18a.7.7,0,0,1,.52.13.5.5,0,0,1,.12.33,1.36,1.36,0,0,1-.08.39,1.46,1.46,0,0,1-.07.19,10.22,10.22,0,0,1-1.16,2L6.87,8.49a7.1,7.1,0,0,0-.74,1.28,2.06,2.06,0,0,0-.12.35,1.68,1.68,0,0,0-.07.63,1.1,1.1,0,0,0,.23.63l.13.14ZM11,6.6a3.22,3.22,0,0,1-.64,1.45c-.64.94-1.4,1.8-2,2.74-.08.11-.15.26-.07.36a.34.34,0,0,0,.29.07,1.75,1.75,0,0,1,2,.81,3.35,3.35,0,0,1,.22.7s.05.63,0,.62h0a.41.41,0,0,0-.07-.11,1.44,1.44,0,0,0-.23-.32,1.15,1.15,0,0,0-.48-.3,2.48,2.48,0,0,0-.81-.11,5,5,0,0,0-1,.07c-.38,0-.74.16-1.12.18a.7.7,0,0,1-.52-.13.45.45,0,0,1-.12-.33,1.34,1.34,0,0,1,.07-.39l.07-.19a10.22,10.22,0,0,1,1.16-2L9.23,7.53A7.1,7.1,0,0,0,10,6.25a2.06,2.06,0,0,0,.12-.35,1.62,1.62,0,0,0,.06-.62,1.09,1.09,0,0,0-.22-.63L9.79,4.5l.33.29a3.51,3.51,0,0,1,.34.33,2.34,2.34,0,0,1,.33.49,2.07,2.07,0,0,1,.22.77A1.64,1.64,0,0,1,11,6.6Z"/></svg>